<?xml version="1.0" encoding="UTF-8"?>
<svg id="Layer_2" data-name="Layer 2" xmlns="http://www.w3.org/2000/svg" viewBox="0 0 452.47 114.25">
  <defs>
    <style>
      .cls-1 {
        fill: #3ea8ff;
      }

      .cls-2 {
        fill: #1b60a5;
      }
    </style>
  </defs>
  <g id="CHAPA2">
    <g>
      <path class="cls-2" d="M144.12,48.04v4.13h27.65v12.48h-27.65v24.48h-15.55v-40.99c0-17.28,11.42-27.36,30.81-27.36,7.68,0,14.69,1.63,19.68,4.7l-4.8,12.29c-4.13-2.69-9.12-3.74-13.82-3.74-10.75,0-16.32,4.7-16.32,14.01Z"/>
      <path class="cls-2" d="M236.86,37.48v51.64h-14.21v-6.14c-3.94,4.51-9.7,6.91-16.03,6.91-12.96,0-22.08-7.29-22.08-23.23v-29.18h14.98v26.97c0,8.64,3.84,12.48,10.46,12.48s11.9-4.42,11.9-13.92v-25.53h14.97Z"/>
      <path class="cls-2" d="M283.61,89.12l-11.33-15.84-11.71,15.84h-16.32l19.87-26.01-19.2-25.63h16.8l10.94,15.07,11.23-15.07h15.93l-19.2,25.25,19.97,26.4h-16.99Z"/>
      <path class="cls-2" d="M306.08,21.93c0-4.7,3.74-8.35,9.31-8.35s9.31,3.46,9.31,8.06c0,4.99-3.74,8.64-9.31,8.64s-9.31-3.65-9.31-8.35ZM307.9,37.48h14.98v51.64h-14.98v-51.64Z"/>
      <path class="cls-2" d="M332.96,63.3c0-15.55,12-26.59,28.41-26.59s28.32,11.04,28.32,26.59-11.9,26.59-28.32,26.59-28.41-11.04-28.41-26.59ZM374.52,63.3c0-8.93-5.66-14.3-13.15-14.3s-13.25,5.38-13.25,14.3,5.76,14.3,13.25,14.3,13.15-5.38,13.15-14.3Z"/>
      <path class="cls-2" d="M452.47,59.56v29.57h-14.98v-27.26c0-8.35-3.84-12.19-10.46-12.19-7.2,0-12.38,4.42-12.38,13.92v25.53h-14.98v-51.64h14.3v6.05c4.03-4.42,10.08-6.82,17.09-6.82,12.19,0,21.41,7.1,21.41,22.85Z"/>
    </g>
    <g id="ELLIPSE">
      <path class="cls-2" d="M95.18,20.23c6.39,3.69,6.39,9.67,0,13.35l-28.46,16.43c-7.37,4.26-13.34,14.6-13.34,23.11v32.87c0,7.37-5.18,10.36-11.56,6.67l-30.25-17.46c-6.39-3.69-11.56-12.65-11.56-20.03v-32.87c0-8.51,5.98-18.86,13.34-23.11L41.81,2.77c6.39-3.69,16.74-3.69,23.13,0l30.24,17.46ZM68.49,28.44c1.48-.85,1.48-2.23,0-3.08l-12.45-7.19c-1.48-.85-3.86-.85-5.34,0l-19.57,11.3c-7.37,4.25-13.34,14.6-13.34,23.11v22.6c0,1.7,1.2,3.77,2.67,4.62l12.45,7.19c1.47.85,2.67.16,2.67-1.54v-22.6c0-8.51,5.98-18.86,13.34-23.11l19.57-11.3Z"/>
    </g>
    <g id="ELLIPSE-2" data-name="ELLIPSE">
      <path class="cls-1" d="M96.96,50.01v23.62c0,5.11-3.59,11.31-8.01,13.87l-20.46,11.81v-23.63c0-5.1,3.59-11.31,8.01-13.86l20.46-11.81Z"/>
    </g>
  </g>
</svg>