<?xml version="1.0" encoding="UTF-8"?>
<svg id="Layer_2" data-name="Layer 2" xmlns="http://www.w3.org/2000/svg" viewBox="0 0 454.03 114.25">
  <defs>
    <style>
      .cls-1 {
        fill: #3ea8ff;
      }

      .cls-2 {
        fill: #1b60a5;
      }
    </style>
  </defs>
  <g id="CHAPA2">
    <g id="ELLIPSE">
      <path class="cls-2" d="M95.18,20.23c6.39,3.69,6.39,9.67,0,13.35l-28.46,16.43c-7.37,4.26-13.34,14.6-13.34,23.11v32.87c0,7.37-5.18,10.36-11.56,6.67l-30.25-17.46c-6.39-3.69-11.56-12.65-11.56-20.03v-32.87c0-8.51,5.98-18.86,13.34-23.11L41.81,2.77c6.39-3.69,16.74-3.69,23.13,0l30.24,17.46ZM68.49,28.44c1.48-.85,1.48-2.23,0-3.08l-12.45-7.19c-1.48-.85-3.86-.85-5.34,0l-19.57,11.3c-7.37,4.25-13.34,14.6-13.34,23.11v22.6c0,1.7,1.2,3.77,2.67,4.62l12.45,7.19c1.47.85,2.67.16,2.67-1.54v-22.6c0-8.51,5.98-18.86,13.34-23.11l19.57-11.3Z"/>
    </g>
    <g id="ELLIPSE-2" data-name="ELLIPSE">
      <path class="cls-1" d="M96.96,50.01v23.62c0,5.11-3.59,11.31-8.01,13.87l-20.46,11.81v-23.63c0-5.1,3.59-11.31,8.01-13.86l20.46-11.81Z"/>
    </g>
    <g>
      <path class="cls-1" d="M224.02,65.14c0,8.62-3.83,12.46-10.45,12.46h-1.43c-6.61,0-10.45-3.83-10.45-12.46v-26.93h-14.95v29.13c0,15.91,9.1,23.2,22.04,23.19h8.14c12.94,0,22.04-7.28,22.04-23.19v-29.13h-14.95v26.93Z"/>
      <path class="cls-1" d="M128.57,48.85v40.92h15.53v-24.44h27.6v-12.46h-27.6v-4.12c0-9.3,5.56-13.99,16.29-13.99,4.7,0,9.68,1.05,13.8,3.74l4.79-12.27c-4.98-3.07-11.98-4.7-19.65-4.7-19.36,0-30.76,10.06-30.76,27.31Z"/>
      <polygon class="cls-1" points="301.85 38.21 285.94 38.21 274.73 53.26 263.8 38.21 247.03 38.21 266.2 63.8 246.36 89.77 262.65 89.77 274.35 73.96 285.65 89.77 302.62 89.77 282.68 63.42 301.85 38.21"/>
      <rect class="cls-1" x="309.9" y="38.21" width="14.95" height="51.56"/>
      <path class="cls-1" d="M317.38,14.35c-5.56,0-9.3,3.64-9.3,8.34s3.74,8.34,9.3,8.34,9.3-3.64,9.3-8.62c0-4.6-3.74-8.05-9.3-8.05Z"/>
      <path class="cls-1" d="M363.28,37.45c-16.39,0-28.37,11.02-28.37,26.55s11.98,26.55,28.37,26.55,28.27-11.02,28.27-26.55-11.88-26.55-28.27-26.55ZM363.28,78.27c-7.47,0-13.23-5.37-13.23-14.28s5.75-14.28,13.23-14.28,13.13,5.37,13.13,14.28-5.65,14.28-13.13,14.28Z"/>
      <path class="cls-1" d="M431.99,37.45h-8.14c-12.94,0-22.04,7.28-22.04,23.19v29.13h14.95v-26.93c0-8.62,3.83-12.46,10.45-12.46h1.43c6.61,0,10.45,3.83,10.45,12.46v26.93h14.95v-29.13c0-15.91-9.1-23.2-22.04-23.19Z"/>
    </g>
  </g>
</svg>