<?xml version="1.0" encoding="UTF-8"?>
<svg id="Layer_2" data-name="Layer 2" xmlns="http://www.w3.org/2000/svg" viewBox="0 0 99.97 114.25">
  <defs>
    <style>
      .cls-1 {
        fill: #fff;
      }
    </style>
  </defs>
  <g id="CHAPA2">
    <g id="ELLIPSE">
      <path class="cls-1" d="M95.18,20.23c6.39,3.69,6.39,9.67,0,13.35l-28.46,16.43c-7.37,4.26-13.34,14.6-13.34,23.11v32.87c0,7.37-5.18,10.36-11.56,6.67l-30.25-17.46c-6.39-3.69-11.56-12.65-11.56-20.03v-32.87c0-8.51,5.98-18.86,13.34-23.11L41.81,2.77c6.39-3.69,16.74-3.69,23.13,0l30.24,17.46ZM68.49,28.44c1.48-.85,1.48-2.23,0-3.08l-12.45-7.19c-1.48-.85-3.86-.85-5.34,0l-19.57,11.3c-7.37,4.25-13.34,14.6-13.34,23.11v22.6c0,1.7,1.2,3.77,2.67,4.62l12.45,7.19c1.47.85,2.67.16,2.67-1.54v-22.6c0-8.51,5.98-18.86,13.34-23.11l19.57-11.3Z"/>
    </g>
    <g id="ELLIPSE-2" data-name="ELLIPSE">
      <path class="cls-1" d="M96.96,50.01v23.62c0,5.11-3.59,11.31-8.01,13.87l-20.46,11.81v-23.63c0-5.1,3.59-11.31,8.01-13.86l20.46-11.81Z"/>
    </g>
  </g>
</svg>