<?xml version="1.0" encoding="UTF-8" standalone="no"?>
<!-- Created with Inkscape (http://www.inkscape.org/) -->

<svg
   xmlns:dc="http://purl.org/dc/elements/1.1/"
   xmlns:cc="http://creativecommons.org/ns#"
   xmlns:rdf="http://www.w3.org/1999/02/22-rdf-syntax-ns#"
   xmlns:svg="http://www.w3.org/2000/svg"
   xmlns="http://www.w3.org/2000/svg"
   xmlns:sodipodi="http://sodipodi.sourceforge.net/DTD/sodipodi-0.dtd"
   xmlns:inkscape="http://www.inkscape.org/namespaces/inkscape"
   width="26.827482mm"
   height="26.827482mm"
   viewBox="0 0 95.058008 95.058007"
   id="svg2"
   version="1.1"
   inkscape:version="0.91 r13725"
   sodipodi:docname="fuxion.svg"
   inkscape:export-filename="fuxion"
   inkscape:export-xdpi="90"
   inkscape:export-ydpi="90">
  <defs
     id="defs4">
    <clipPath
       clipPathUnits="userSpaceOnUse"
       id="clipPath4230">
      <path
         style="fill:#ff1100;fill-opacity:1;fill-rule:evenodd;stroke:none;stroke-width:1px;stroke-linecap:butt;stroke-linejoin:miter;stroke-opacity:1"
         d="m 373.75644,270.50413 17.67767,0.50508 c 0,0 -5.05076,-27.77919 -5.05076,-29.04189 0,-1.26269 -11.36422,-22.72843 -13.63706,-23.2335 -2.27284,-0.50508 -50.25509,-6.06092 -56.82108,-5.80838 -6.56599,0.25254 -39.90103,26.5165 -40.4061,30.05204 -0.50508,3.53553 -7.82869,31.06219 -6.31346,36.11295 1.51523,5.05076 7.57615,31.31473 13.13199,37.37564 5.55584,6.06092 44.69925,26.51651 47.7297,26.51651 3.03046,0 13.63706,3.53553 15.40483,1.01015 1.76777,-2.52538 -0.75761,-15.15229 -0.75761,-15.15229 l -6.81853,-16.66751 23.48604,-41.41626 z"
         id="path4232"
         inkscape:connector-curvature="0" />
    </clipPath>
    <clipPath
       clipPathUnits="userSpaceOnUse"
       id="clipPath4240">
      <path
         style="fill:#ff1100;fill-opacity:1;fill-rule:evenodd;stroke:none;stroke-width:1px;stroke-linecap:butt;stroke-linejoin:miter;stroke-opacity:1"
         d="m 367.69553,302.32394 -11.61676,-8.83884 1.01016,-23.2335 3.28299,-2.02031 14.39467,6.06092 -4.79822,-19.95052 c 0,0 -0.25254,-19.69797 -1.51523,-20.20305 -1.26269,-0.50507 -43.6891,-3.53553 -43.6891,-3.53553 0,0 -39.90102,7.57614 -39.90102,13.13198 0,5.55584 -1.76777,21.2132 1.26269,30.30458 3.03046,9.09137 10.10152,42.67894 11.36421,43.43656 1.2627,0.75761 45.45687,14.14213 47.72971,13.88959 2.27285,-0.25253 28.78935,-11.61675 28.78935,-11.61675 z"
         id="path4242"
         inkscape:connector-curvature="0" />
    </clipPath>
  </defs>
  <sodipodi:namedview
     id="base"
     pagecolor="#ffffff"
     bordercolor="#666666"
     borderopacity="1.0"
     inkscape:pageopacity="0.0"
     inkscape:pageshadow="2"
     inkscape:zoom="5.6"
     inkscape:cx="30.717505"
     inkscape:cy="65.76718"
     inkscape:document-units="px"
     inkscape:current-layer="layer1"
     showgrid="false"
     inkscape:window-width="1604"
     inkscape:window-height="1027"
     inkscape:window-x="1748"
     inkscape:window-y="-8"
     inkscape:window-maximized="1"
     fit-margin-top="0"
     fit-margin-left="0"
     fit-margin-right="0"
     fit-margin-bottom="0" />
  <metadata
     id="metadata7">
    <rdf:RDF>
      <cc:Work
         rdf:about="">
        <dc:format>image/svg+xml</dc:format>
        <dc:type
           rdf:resource="http://purl.org/dc/dcmitype/StillImage" />
        <dc:title />
      </cc:Work>
    </rdf:RDF>
  </metadata>
  <g
     inkscape:label="Capa 1"
     inkscape:groupmode="layer"
     id="layer1"
     transform="translate(-288.47301,-230.42498)">
    <circle
       style="opacity:1;fill:none;fill-opacity:1;stroke:#389dcb;stroke-width:6;stroke-miterlimit:4;stroke-dasharray:none;stroke-opacity:1"
       id="path4158"
       cx="336.00201"
       cy="277.95398"
       r="44.529003"
       clip-path="url(#clipPath4230)" />
    <circle
       style="opacity:1;fill:none;fill-opacity:1;stroke:#000000;stroke-width:7.46999645;stroke-miterlimit:4;stroke-dasharray:none;stroke-opacity:1"
       id="path4158-5"
       cx="336.1283"
       cy="277.5752"
       r="31.858307"
       clip-path="url(#clipPath4240)" />
    <path
       sodipodi:type="star"
       style="opacity:1;fill:#389dcb;fill-opacity:1;stroke:none;stroke-width:8;stroke-miterlimit:4;stroke-dasharray:none;stroke-opacity:1"
       id="path4175"
       sodipodi:sides="3"
       sodipodi:cx="329.33627"
       sodipodi:cy="278.83789"
       sodipodi:r1="18.74588"
       sodipodi:r2="9.372941"
       sodipodi:arg1="3.1415927"
       sodipodi:arg2="4.1887902"
       inkscape:flatsided="true"
       inkscape:rounded="0"
       inkscape:randomized="0"
       d="m 310.59039,278.83789 28.11882,-16.23441 0,32.46882 z"
       inkscape:transform-center-x="3.8025674"
       inkscape:transform-center-y="-1.0058702e-005"
       transform="matrix(0.81139676,0,0,1,63.376581,-0.25253814)" />
    <path
       style="fill:#389dcb;fill-opacity:1;fill-rule:evenodd;stroke:none;stroke-width:1px;stroke-linecap:butt;stroke-linejoin:miter;stroke-opacity:1"
       d="m 338.14856,270.50413 c 0,0 20.34246,-0.34623 34.85027,10.48034 6.34586,4.73565 7.38674,11.14324 7.30783,17.84339 -1.03859,4.47014 -0.9349,6.25655 -6.04533,11.71211 -3.93403,3.24717 -4.00627,3.20851 -8.0179,4.72654 -7.50633,2.84046 -11.04854,2.58852 -11.04854,2.58852 0,0 9.93374,-4.99613 12.43751,-8.20749 2.90418,-3.72493 3.75552,-6.35946 2.71478,-11.86929 -1.07329,-5.68211 -7.57615,-7.76555 -10.60661,-8.7757 -3.03046,-1.01015 -7.95495,-1.8309 -13.00571,-1.8309 l -8.83883,0 z"
       id="path4204"
       inkscape:connector-curvature="0"
       sodipodi:nodetypes="csccscsssscc" />
  </g>
</svg>
